<?xml version="1.0" standalone="no"?>
<!DOCTYPE svg PUBLIC "-//W3C//DTD SVG 1.1//EN" "http://www.w3.org/Graphics/SVG/1.1/DTD/svg11.dtd" >
<svg xmlns="http://www.w3.org/2000/svg" xmlns:xlink="http://www.w3.org/1999/xlink" version="1.1">
<metadata></metadata>
<defs>
<font id="arfmoochikncheezregular" horiz-adv-x="1148" >
<font-face units-per-em="2048" ascent="1536" descent="-512" />
<missing-glyph horiz-adv-x="585" />
<glyph horiz-adv-x="0" />
<glyph unicode="&#xd;" horiz-adv-x="585" />
<glyph unicode=" "  horiz-adv-x="585" />
<glyph unicode="&#x09;" horiz-adv-x="585" />
<glyph unicode="&#xa0;" horiz-adv-x="585" />
<glyph unicode="." horiz-adv-x="475" d="M39 166q0 41 14.5 79t40 66.5t60 46t77.5 17.5q29 0 65 -10.5t66.5 -34t51 -62.5t20.5 -94q0 -90 -57.5 -140t-130.5 -50q-96 0 -151.5 48t-55.5 134z" />
<glyph unicode="0" horiz-adv-x="962" d="M27 627l49 86q23 -18 45 -33q20 -12 47 -21.5t55 -9.5q10 0 -14.5 15.5t-60 38t-69.5 49t-44 51.5q-4 10 -2 27.5t15 36t40 31.5t70 15q-27 6 -49.5 15.5t-38.5 19.5q-20 10 -35 23l49 86q23 -18 45 -33q20 -12 47 -21.5t55 -9.5q10 0 -14 15.5t-60 38t-70 49t-44 51.5 q-4 10 -2 28.5t16.5 37t43 31.5t75.5 13q35 0 63.5 -10t49.5 -20q23 -14 41 -31l-64 -61q-33 20 -57.5 35.5t-40.5 5.5q53 -37 94 -70t82 -70h2q25 74 37 134.5t12 89.5l70 34q18 -37 41 -77q18 -35 39.5 -82.5t40.5 -98.5q2 59 -2 124t-13 126q27 -2 50 -4q20 -2 40.5 -3 t32.5 -1q4 -66 8.5 -114t8.5 -81q4 -37 6 -65l119 10l55 -74l-213 -39l-68 48q4 -10 5 -18.5t3 -14.5l-77 -29l57 -12l-6 -6l82 18l106 -196q-2 35 -6 71q-4 31 -9 67t-9 70l106 17q8 -57 12.5 -118.5t6.5 -115.5q2 -61 2 -121h-4v-65l-101 -23q0 -20 4 -50.5t9.5 -61.5 t10.5 -54.5t5 -27.5l59 -2q29 -94 35 -174t2 -166l-104 24q4 35 4 63t-4 62l-17 -71l-65 -13l-35 78q2 -25 3 -43t-1 -31q-2 -14 -4 -22h-82q2 39 2 84q0 37 -2 84t-12 94l71 35l91 -184q4 23 8 51q4 23 7 55.5t7 67.5l-65 -11q-10 31 -16.5 66t-10.5 63q-6 35 -10 68 l-41 -8q2 -8 2 -27q0 -43 -11.5 -72.5t-29 -47t-38 -25.5t-40.5 -10q33 -12 57.5 -44t24.5 -98q0 -47 -13.5 -76.5t-34 -46t-44 -22.5t-43.5 -6q-106 0 -142 67l-43 -59q-35 -6 -72.5 -4t-69.5 18.5t-53.5 49t-21.5 87.5q0 59 35 94t84 44q-14 2 -23.5 4t-17.5 4l-16 4 l-41 248l49 33q-23 6 -41 14t-31 16q-16 8 -26 19zM152 154q0 -55 46 -73t111 -9q-10 31 -10 61q0 23 4 41.5t10 34.5l-69 -49q-6 12 -15 20q-6 8 -15 15.5t-19 7.5q-18 0 -30.5 -10t-12.5 -39zM160 831q53 -37 94 -70.5t82 -68.5q12 -12 18 -24q-6 47 -15 91t-26 85 l-55 -56q-33 23 -57.5 38t-40.5 5zM180 485l25 -131q18 -2 33 2q12 4 23 10.5t11 22.5t-10 30.5t-24.5 27t-29.5 21.5t-28 17zM199 565q35 -20 73.5 -42.5t63.5 -53.5q8 41 30.5 68.5t55.5 42.5q-12 -2 -23.5 -2h-21.5t-21 -3v33t-2 35q-6 -31 -47 -54.5t-108 -23.5z M215 909q31 -6 52.5 -18t35.5 -23q0 2 -1 2t-1 2l86 58l131 -25q-4 29 -22 86l-70 -10q-4 -14 -9 -26.5t-7 -18.5h-91q-41 -25 -104 -27zM223 283q27 -4 51.5 -19.5t44.5 -44.5q31 59 101 72q-49 16 -72 59q-18 -33 -53 -48t-72 -19zM395 139q0 -18 11.5 -48t46.5 -30 q33 0 41 25t8 53q0 29 -14.5 53.5t-49.5 24.5q-20 0 -31.5 -21.5t-11.5 -56.5zM428 436q0 -20 12 -50t45 -30q35 0 44.5 26t9.5 54q0 29 -15.5 52.5t-50.5 23.5q-18 0 -31.5 -20.5t-13.5 -55.5zM436 836q2 -4 4 -13q2 -6 4 -17t7 -26h110l-26 -63h-74q0 -12 1 -24.5t1 -24.5 l139 -9q-2 53 -6 117t-12 103l-58 -50zM444 1047l33 6q-6 12 -10 23.5t-8 21.5q-2 -6 -4 -15q-2 -8 -4 -17t-7 -19zM549 578q33 -12 53 -43l205 40h-35l-82 123l6 -123h-90q-2 10 -2 23q0 10 -1 23.5t-1 29.5l-18 -76h-11q-4 0 -10 1.5t-14 1.5z" />
<glyph unicode="1" horiz-adv-x="1705" d="M41 416l20 164l650 108l-6 -176l-226 -37q-2 -47 6.5 -119.5t18.5 -142.5q12 -82 28 -168l-229 -35q-16 68 -27.5 143.5t-19.5 141.5q-8 76 -16 147zM49 1233l197 49l30 -309l101 237l229 72l-143 -264l168 -170q-23 57 -23 129q0 70 21.5 126t59.5 96t90 62.5t114 22.5 q43 0 92 -12t92 -44t71 -90.5t28 -150.5q0 -63 -13 -113l58 84q33 -33 69 -59q33 -23 75 -43t91 -25q10 0 -4 12.5t-44 35t-69 52.5t-74.5 60.5t-64.5 62t-37 60.5q-6 18 0 49t32 59.5t76 47t130 12.5q59 -4 105 -24.5t77 -43.5q37 -27 64 -57l-115 -96q-49 41 -89 69.5 t-67 12.5q82 -68 146.5 -127.5t126.5 -124.5q33 -35 29.5 -72t-38 -66.5t-97 -46t-146.5 -10.5q-45 4 -87 18.5t-76 33t-58.5 37t-36.5 30.5q-41 -74 -105.5 -98.5t-120.5 -24.5q-20 0 -30 2q12 -23 32.5 -64.5t46 -97t53 -122t52.5 -138.5q4 98 7 199.5t-1 165.5l172 18 l166 -397v139q0 59 -1 131t-5 138l205 4q4 -111 -1 -228.5t-12 -218.5q-8 -117 -18 -231l-207 20l-133 250l-14 -233l-88 8l6 -31l-193 -59q-4 25 -10 55q-4 27 -12 60.5t-19 72.5l-137 -16q-10 -29 -19.5 -51.5t-13.5 -32.5l-190 6q45 100 79 195.5t56.5 176.5t34.5 144.5 t14 97.5l96 45q-51 10 -90 31l-221 -55l-201 219l-30 -23l18 -172l-194 -24zM795 987q0 -18 5 -43.5t17 -48.5t33.5 -39t54.5 -16t51.5 12t28.5 33.5t13 47t3 54.5q0 57 -28.5 102.5t-93.5 45.5q-35 0 -59.5 -41t-24.5 -107zM815 246l62 8q-8 23 -16.5 44t-16.5 42 q-4 -12 -8 -27q-4 -12 -9.5 -29.5t-11.5 -37.5z" />
<glyph unicode="A" horiz-adv-x="927" d="M-57 2q76 188 133 368.5t95 334t56.5 271.5t18.5 185l297 125q109 -205 209 -426q43 -94 88 -202.5t88 -223.5t81 -234.5t66 -238.5l-377 -78q-10 37 -24 86q-12 41 -28.5 99.5t-37.5 130.5l-254 -35q-16 -53 -31.5 -96t-25.5 -66h-354zM424 401l113 19q-16 43 -33 83 t-33 79q-6 -25 -14 -54q-6 -25 -14.5 -57.5t-18.5 -69.5z" />
<glyph unicode="B" d="M-53 1026l207 223q184 0 329.5 -34.5t245.5 -93t153.5 -132.5t53.5 -151q0 -35 -15.5 -64t-33.5 -51q-22 -24 -47 -47q74 0 140.5 -25.5t115.5 -65.5t77.5 -88t28.5 -96q0 -104 -48 -183t-130 -131t-188.5 -78.5t-225.5 -26.5q-76 0 -154.5 14t-147 44t-119 77t-68.5 112 q-6 23 -17.5 70t-24.5 106.5t-28.5 129t-30.5 139.5q-35 162 -73 352zM346 975l72 -320q45 0 84 11.5t66.5 30t43 40t15.5 41.5q0 37 -31 72t-74 62.5t-91 45t-85 17.5zM465 436q0 -37 10 -69.5t36 -56t68.5 -37t108.5 -13.5t112 27.5t46 66.5q0 20 -8.5 40t-29 36t-56 26.5 t-93.5 10.5q-55 0 -93 -5t-60 -11q-27 -8 -41 -15z" />
<glyph unicode="C" horiz-adv-x="1167" d="M-23 678q0 109 40 213t113 186t177.5 134.5t234.5 58.5q14 1 29 1q117 0 253 -43q152 -48 323 -167l-240 -336q-49 39 -102 70q-45 27 -99.5 48t-101.5 21q-80 0 -132 -45t-52 -137q0 -109 69.5 -186.5t184 -120.5t262.5 -51q33 -2 67 -2q116 0 236 22l-121 -334 q-125 -20 -257 -22h-22q-121 0 -237 20q-127 22 -240.5 70.5t-198.5 130.5t-135.5 197.5t-50.5 271.5z" />
<glyph unicode="D" horiz-adv-x="1077" d="M-49 1004l311 247q61 -43 148.5 -91t181.5 -101t187 -114.5t168 -134.5t121 -158t46 -185q0 -133 -59.5 -227.5t-152.5 -152.5t-206.5 -85t-222.5 -27q-80 0 -142.5 7.5t-107.5 17.5q-53 10 -92 27zM381 807l100 -535q18 -1 35 -1q55 0 100 10q51 10 93.5 41.5t42.5 97.5 t-40 124t-98.5 106t-122 88t-110.5 69z" />
<glyph unicode="E" horiz-adv-x="968" d="M-55 1065l286 203l762 -140l-254 -217l-329 25q8 -20 16 -49q14 -49 37 -154h401l-100 -227h-268q4 -41 8 -84t6 -94l508 -25l-76 -303l-133 10q-59 4 -135 7t-152 3q-39 0 -101.5 -3t-123.5 -7q-72 -6 -150 -10q0 266 -45 540.5t-157 524.5z" />
<glyph unicode="F" horiz-adv-x="892" d="M-63 1065l303 203l761 -140l-253 -217l-330 25q4 -23 12 -53q6 -27 13.5 -65t17.5 -85h413l-100 -227h-282q12 -102 20 -224t8 -257q-39 0 -104.5 -4.5t-130.5 -8.5q-76 -6 -160 -12q0 133 -8 269.5t-29.5 271.5t-57.5 267t-93 257z" />
<glyph unicode="G" horiz-adv-x="1218" d="M0 637q0 150 59.5 269.5t157.5 201.5t223 122q101 32 205 32q24 0 49 -2q129 -9 252 -73.5t219 -189.5l-403 -176q-23 39 -57 72q-29 29 -72 51.5t-101 22.5q-57 0 -87.5 -29t-45 -66.5t-16.5 -76.5t-2 -58q0 -205 101.5 -327.5t301.5 -147.5v223h-202l102 174l506 181 v-936l-406 -154v232q-45 0 -120.5 8t-162.5 31.5t-176 67.5t-161 117t-118 178t-46 253z" />
<glyph unicode="H" horiz-adv-x="1189" d="M23 1171l376 50q2 -59 7 -134q4 -63 8 -151t10 -193l307 25q-4 118 -9 234q-2 53 -2 104q0 62 3 123l397 53q4 -211 13 -428q2 -92 7 -195.5t10 -210t12 -213t16 -206.5l-394 -29q-4 68 -12 150q-6 70 -13 158.5t-14 191.5l-301 -25q6 -104 13.5 -227t15.5 -221l-401 -27 q-14 250 -25 475q-4 96 -9 196.5t-8 192.5t-5 172t-2 135z" />
<glyph unicode="I" horiz-adv-x="501" d="M46 950q1 104 5 201l389 80q-4 -122 -4 -247q0 -84 2 -169q2 -90 5 -191.5t9.5 -207t15.5 -212t24 -206.5l-390 -10q-20 184 -34 383q-6 84 -12 179q-5 96 -8 196q-2 75 -2 152v52z" />
<glyph unicode="J" horiz-adv-x="1044" d="M0 430l354 125q96 -152 177 -226.5t178 -74.5q18 0 13 46t-24.5 121t-50.5 168t-65.5 189t-68.5 184.5t-58 151.5l350 150q78 -180 141 -351q27 -72 51.5 -148.5t45 -150t32.5 -141t12 -119.5q0 -104 -48 -172.5t-119.5 -108.5t-157.5 -56.5t-160 -16.5 q-66 0 -138.5 20.5t-150 70.5t-157.5 133t-156 206z" />
<glyph unicode="K" horiz-adv-x="1224" d="M0 1141l399 104l68 -659l213 506l477 153l-305 -565l606 -604l-477 -121l-428 465l-64 -47l39 -367l-399 -51z" />
<glyph unicode="L" horiz-adv-x="937" d="M6 1243q86 -8 166 -14q68 -6 137.5 -10.5t112.5 -4.5q29 -199 44 -367.5t23 -295.5q8 -147 13 -272l479 12l180 -291l-815 -57l-289 196q11 135 11 278q0 129 -9 264q-18 286 -53 562z" />
<glyph unicode="M" horiz-adv-x="1320" d="M6 1118l291 146l375 -762q20 102 41 225q16 104 31.5 242.5t25.5 294.5l401 -23q55 -193 89 -371t49.5 -349t15.5 -341t-8 -344l-424 98q8 74 13 137.5t5 123t-5 122t-13 136.5l-74 -297l-270 -50l-150 322q11 -104 11 -178v-16q0 -63 -4 -105q-4 -55 -11 -94h-342 q12 168 13 350q0 156 -11.5 348.5t-48.5 384.5z" />
<glyph unicode="N" horiz-adv-x="1228" d="M-4 1102l332 57l481 -635q-12 109 -27 224q-12 98 -28.5 218.5t-34.5 241.5l420 60q14 -100 24.5 -209t17.5 -216.5t12 -212t9 -198.5q8 -219 10 -432h-399l-379 438l17 -438h-379q-6 227 -17 436q-4 88 -10 182.5t-13 182.5t-16.5 165.5t-19.5 135.5z" />
<glyph unicode="O" d="M-12 580q0 145 44 264t121.5 202.5t186 130t235.5 46.5q59 0 126 -10.5t132.5 -36t126 -69.5t105.5 -112.5t72.5 -165t27.5 -223.5t-24.5 -222t-67.5 -163.5t-97 -113t-115.5 -70t-123 -35.5t-116.5 -10q-305 0 -469 149.5t-164 438.5zM371 606q0 -37 11 -90t37.5 -101 t71.5 -82t113 -34t108 26.5t61.5 69.5t27.5 98.5t6 112.5t-14.5 112.5t-46 98.5t-81 69.5t-116.5 26.5q-37 0 -70 -22.5t-57.5 -63.5t-37.5 -97t-13 -124z" />
<glyph unicode="P" horiz-adv-x="954" d="M-4 1108l323 172q61 -37 139.5 -74t158 -76.5t154.5 -86t131 -101.5q56 -54 89 -122q29 -60 29 -134v-18q-6 -111 -59.5 -182.5t-125 -114.5t-150.5 -63.5t-136 -26.5q6 -47 9 -95.5t7 -89.5q2 -47 4 -90l-399 -33q-10 147 -21.5 302t-31 303.5t-48 283.5t-73.5 246z M432 901q25 -74 44.5 -171t35.5 -206q29 -4 61.5 -2t61.5 13.5t48 34t22 59.5q2 29 -9.5 56.5t-30 52t-43 46t-51.5 39.5q-61 43 -139 78z" />
<glyph unicode="Q" horiz-adv-x="1308" d="M33 602q0 154 46 279t129 214t196.5 137t248.5 48q94 0 203 -25.5t202 -97.5t155.5 -199t62.5 -329q0 -131 -38 -232.5t-101 -177.5l147 -143l-278 -187l-115 144q-125 -51 -238 -51q-123 0 -235.5 39.5t-198.5 118.5t-136 195t-50 267zM438 629q0 -41 11.5 -95.5 t40 -105.5t74.5 -87t118 -36l-104 131l182 144l121 -115q10 37 12 79t2 85q0 61 -15.5 119.5t-48 104.5t-84 73.5t-122.5 27.5q-41 0 -75 -24.5t-58.5 -67.5t-39 -102t-14.5 -131z" />
<glyph unicode="R" horiz-adv-x="1177" d="M-51 1141l325 190q68 -35 152 -66.5t170 -66.5t168 -76t145.5 -93t102.5 -120.5t39 -156.5q0 -94 -36 -151.5t-95 -98.5l499 -500l-471 -22l-383 393q8 -49 15.5 -101.5t11.5 -95.5q6 -51 8 -96l-407 -107q-20 152 -42 311.5t-49.5 312.5t-64.5 292t-88 252zM412 950 q14 -37 27.5 -72.5t25.5 -73.5t24.5 -82t24.5 -97q31 -2 63.5 0t61.5 12t47.5 32.5t18.5 61.5q0 61 -46.5 102t-101.5 68q-66 31 -145 49z" />
<glyph unicode="S" horiz-adv-x="925" d="M-76 195l174 274q68 -49 135 -86q57 -33 120 -59.5t114 -26.5q39 0 58.5 20.5t19.5 38.5q0 20 -29 38t-78 41.5t-113.5 55t-136.5 80.5q-59 37 -94 73t-54.5 74t-25.5 81t-6 94q0 63 29 126.5t85 115t140 83t193 31.5q100 0 186 -30.5t152 -65.5q76 -43 139 -96 l-154 -258q-57 33 -112 59q-47 23 -99.5 42.5t-91.5 19.5q-41 0 -60.5 -19.5t-19.5 -38.5q0 -41 60.5 -79t169.5 -85q147 -61 221 -149t74 -215q0 -92 -33 -156.5t-92.5 -104.5t-142.5 -58.5t-181 -18.5q-90 0 -171 20.5t-151.5 50t-127 64.5t-97.5 64z" />
<glyph unicode="T" horiz-adv-x="923" d="M-168 702l25 297l1155 236v-313l-410 -84q0 -43 5 -99.5t14.5 -120t19.5 -131t23 -131.5q27 -150 61 -309l-391 -78q-35 123 -60.5 262.5t-44.5 257.5q-23 139 -39 273z" />
<glyph unicode="U" horiz-adv-x="1222" d="M14 1149l432 14q0 -262 21.5 -426t52.5 -256t67 -125.5t66 -33.5h3q59 0 84 78q26 80 32 239q1 22 1 45q0 78 -11 158q-14 102 -31 186q-20 98 -45 189l432 92q27 -92 47 -201q17 -94 29 -218q9 -94 9 -198q0 -33 -1 -67q-4 -129 -31.5 -249t-87 -211t-157.5 -143 q-92 -49 -225 -49h-21q-150 6 -259.5 59.5t-184 142.5t-120.5 205t-71 244t-30 263q-3 75 -3 148q0 58 2 114z" />
<glyph unicode="V" horiz-adv-x="956" d="M-98 1151l399 109q39 -104 64.5 -177t48 -142t47 -149.5t61.5 -201.5q27 109 56 213q23 90 51 189.5t55 176.5l342 35q-61 -156 -114.5 -319.5t-93.5 -317t-64.5 -287t-30.5 -227.5l-334 -92q-14 53 -44 136t-69.5 184.5t-88 216t-98.5 228.5t-98 223.5t-89 201.5z" />
<glyph unicode="W" horiz-adv-x="1261" d="M-78 930l305 110l138 -581q6 102 10 213q3 63 3 134q0 34 -1 72q-2 112 -12 218l278 137l221 -748q-2 109 -10 236q-8 111 -25.5 256t-48.5 311l334 195q31 -131 55 -281q20 -129 38 -291.5t18 -341.5q0 -117 -9.5 -232.5t-19.5 -213.5q-12 -113 -27 -219l-360 -111 l-250 610l-55 -389l-320 -110z" />
<glyph unicode="X" horiz-adv-x="1277" d="M-39 -2l461 565l-451 570l523 -13l213 -313l186 293l438 22l-385 -544l428 -580h-483l-186 272l-189 -272h-555z" />
<glyph unicode="Y" horiz-adv-x="1081" d="M-41 1141l410 102q31 -152 67 -270q14 -51 32.5 -99.5t40 -86t45.5 -61.5t48 -24q25 0 37 23t14 59q1 10 1 21q0 27 -4 60q-5 46 -13 96q-23 113 -64 260l379 106q41 -195 74 -375q14 -78 27.5 -158.5t23.5 -159.5t17.5 -149.5t7.5 -126.5q0 -109 -37 -185.5 t-100.5 -124.5t-149.5 -70.5t-186 -22.5q-109 0 -202 29.5t-165 83t-120 130t-68 173.5l395 65q10 -49 33.5 -93t56.5 -77t71 -51t79 -18q34 0 34 57q0 11 -1 26q-9 82 -33 236q-137 -55 -253 -57h-7q-112 0 -203 67q-94 68 -166 217.5t-121 397.5z" />
<glyph unicode="Z" horiz-adv-x="1032" d="M-20 1145l1028 78l36 -283l-493 -590l524 -6l39 -338l-1091 21l-41 303q131 152 235 272q45 51 87 99.5t76 87t56 61.5l21 24l-451 -34z" />
<glyph unicode="a" horiz-adv-x="927" d="M-57 2q76 188 133 368.5t95 334t56.5 271.5t18.5 185l297 125q109 -205 209 -426q43 -94 88 -202.5t88 -223.5t81 -234.5t66 -238.5l-377 -78q-10 37 -24 86q-12 41 -28.5 99.5t-37.5 130.5l-254 -35q-16 -53 -31.5 -96t-25.5 -66h-354zM424 401l113 19q-16 43 -33 83 t-33 79q-6 -25 -14 -54q-6 -25 -14.5 -57.5t-18.5 -69.5z" />
<glyph unicode="b" d="M-53 1026l207 223q184 0 329.5 -34.5t245.5 -93t153.5 -132.5t53.5 -151q0 -35 -15.5 -64t-33.5 -51q-22 -24 -47 -47q74 0 140.5 -25.5t115.5 -65.5t77.5 -88t28.5 -96q0 -104 -48 -183t-130 -131t-188.5 -78.5t-225.5 -26.5q-76 0 -154.5 14t-147 44t-119 77t-68.5 112 q-6 23 -17.5 70t-24.5 106.5t-28.5 129t-30.5 139.5q-35 162 -73 352zM346 975l72 -320q45 0 84 11.5t66.5 30t43 40t15.5 41.5q0 37 -31 72t-74 62.5t-91 45t-85 17.5zM465 436q0 -37 10 -69.5t36 -56t68.5 -37t108.5 -13.5t112 27.5t46 66.5q0 20 -8.5 40t-29 36t-56 26.5 t-93.5 10.5q-55 0 -93 -5t-60 -11q-27 -8 -41 -15z" />
<glyph unicode="c" horiz-adv-x="1167" d="M-23 678q0 109 40 213t113 186t177.5 134.5t234.5 58.5q14 1 29 1q117 0 253 -43q152 -48 323 -167l-240 -336q-49 39 -102 70q-45 27 -99.5 48t-101.5 21q-80 0 -132 -45t-52 -137q0 -109 69.5 -186.5t184 -120.5t262.5 -51q33 -2 67 -2q116 0 236 22l-121 -334 q-125 -20 -257 -22h-22q-121 0 -237 20q-127 22 -240.5 70.5t-198.5 130.5t-135.5 197.5t-50.5 271.5z" />
<glyph unicode="d" horiz-adv-x="1077" d="M-49 1004l311 247q61 -43 148.5 -91t181.5 -101t187 -114.5t168 -134.5t121 -158t46 -185q0 -133 -59.5 -227.5t-152.5 -152.5t-206.5 -85t-222.5 -27q-80 0 -142.5 7.5t-107.5 17.5q-53 10 -92 27zM381 807l100 -535q18 -1 35 -1q55 0 100 10q51 10 93.5 41.5t42.5 97.5 t-40 124t-98.5 106t-122 88t-110.5 69z" />
<glyph unicode="e" horiz-adv-x="968" d="M-55 1065l286 203l762 -140l-254 -217l-329 25q8 -20 16 -49q14 -49 37 -154h401l-100 -227h-268q4 -41 8 -84t6 -94l508 -25l-76 -303l-133 10q-59 4 -135 7t-152 3q-39 0 -101.5 -3t-123.5 -7q-72 -6 -150 -10q0 266 -45 540.5t-157 524.5z" />
<glyph unicode="f" horiz-adv-x="892" d="M-63 1065l303 203l761 -140l-253 -217l-330 25q4 -23 12 -53q6 -27 13.5 -65t17.5 -85h413l-100 -227h-282q12 -102 20 -224t8 -257q-39 0 -104.5 -4.5t-130.5 -8.5q-76 -6 -160 -12q0 133 -8 269.5t-29.5 271.5t-57.5 267t-93 257z" />
<glyph unicode="g" horiz-adv-x="1218" d="M0 637q0 150 59.5 269.5t157.5 201.5t223 122q101 32 205 32q24 0 49 -2q129 -9 252 -73.5t219 -189.5l-403 -176q-23 39 -57 72q-29 29 -72 51.5t-101 22.5q-57 0 -87.5 -29t-45 -66.5t-16.5 -76.5t-2 -58q0 -205 101.5 -327.5t301.5 -147.5v223h-202l102 174l506 181 v-936l-406 -154v232q-45 0 -120.5 8t-162.5 31.5t-176 67.5t-161 117t-118 178t-46 253z" />
<glyph unicode="h" horiz-adv-x="1189" d="M23 1171l376 50q2 -59 7 -134q4 -63 8 -151t10 -193l307 25q-4 118 -9 234q-2 53 -2 104q0 62 3 123l397 53q4 -211 13 -428q2 -92 7 -195.5t10 -210t12 -213t16 -206.5l-394 -29q-4 68 -12 150q-6 70 -13 158.5t-14 191.5l-301 -25q6 -104 13.5 -227t15.5 -221l-401 -27 q-14 250 -25 475q-4 96 -9 196.5t-8 192.5t-5 172t-2 135z" />
<glyph unicode="i" horiz-adv-x="501" d="M46 950q1 104 5 201l389 80q-4 -122 -4 -247q0 -84 2 -169q2 -90 5 -191.5t9.5 -207t15.5 -212t24 -206.5l-390 -10q-20 184 -34 383q-6 84 -12 179q-5 96 -8 196q-2 75 -2 152v52z" />
<glyph unicode="j" horiz-adv-x="1044" d="M0 430l354 125q96 -152 177 -226.5t178 -74.5q18 0 13 46t-24.5 121t-50.5 168t-65.5 189t-68.5 184.5t-58 151.5l350 150q78 -180 141 -351q27 -72 51.5 -148.5t45 -150t32.5 -141t12 -119.5q0 -104 -48 -172.5t-119.5 -108.5t-157.5 -56.5t-160 -16.5 q-66 0 -138.5 20.5t-150 70.5t-157.5 133t-156 206z" />
<glyph unicode="k" horiz-adv-x="1224" d="M0 1141l399 104l68 -659l213 506l477 153l-305 -565l606 -604l-477 -121l-428 465l-64 -47l39 -367l-399 -51z" />
<glyph unicode="l" horiz-adv-x="937" d="M6 1243q86 -8 166 -14q68 -6 137.5 -10.5t112.5 -4.5q29 -199 44 -367.5t23 -295.5q8 -147 13 -272l479 12l180 -291l-815 -57l-289 196q11 135 11 278q0 129 -9 264q-18 286 -53 562z" />
<glyph unicode="m" horiz-adv-x="1320" d="M6 1118l291 146l375 -762q20 102 41 225q16 104 31.5 242.5t25.5 294.5l401 -23q55 -193 89 -371t49.5 -349t15.5 -341t-8 -344l-424 98q8 74 13 137.5t5 123t-5 122t-13 136.5l-74 -297l-270 -50l-150 322q11 -104 11 -178v-16q0 -63 -4 -105q-4 -55 -11 -94h-342 q12 168 13 350q0 156 -11.5 348.5t-48.5 384.5z" />
<glyph unicode="n" horiz-adv-x="1228" d="M-4 1102l332 57l481 -635q-12 109 -27 224q-12 98 -28.5 218.5t-34.5 241.5l420 60q14 -100 24.5 -209t17.5 -216.5t12 -212t9 -198.5q8 -219 10 -432h-399l-379 438l17 -438h-379q-6 227 -17 436q-4 88 -10 182.5t-13 182.5t-16.5 165.5t-19.5 135.5z" />
<glyph unicode="o" d="M-12 580q0 145 44 264t121.5 202.5t186 130t235.5 46.5q59 0 126 -10.5t132.5 -36t126 -69.5t105.5 -112.5t72.5 -165t27.5 -223.5t-24.5 -222t-67.5 -163.5t-97 -113t-115.5 -70t-123 -35.5t-116.5 -10q-305 0 -469 149.5t-164 438.5zM371 606q0 -37 11 -90t37.5 -101 t71.5 -82t113 -34t108 26.5t61.5 69.5t27.5 98.5t6 112.5t-14.5 112.5t-46 98.5t-81 69.5t-116.5 26.5q-37 0 -70 -22.5t-57.5 -63.5t-37.5 -97t-13 -124z" />
<glyph unicode="p" horiz-adv-x="954" d="M-4 1108l323 172q61 -37 139.5 -74t158 -76.5t154.5 -86t131 -101.5t89 -122q29 -61 29 -134v-18q-6 -111 -59.5 -182.5t-125 -114.5t-150.5 -63.5t-136 -26.5q6 -47 9 -95.5t7 -89.5q2 -47 4 -90l-399 -33q-10 147 -21.5 302t-31 303.5t-48 283.5t-73.5 246zM432 901 q25 -74 44.5 -171t35.5 -206q29 -4 61.5 -2t61.5 13.5t48 34t22 59.5q2 29 -9.5 56.5t-30 52t-43 46t-51.5 39.5q-61 43 -139 78z" />
<glyph unicode="q" horiz-adv-x="1308" d="M33 602q0 154 46 279t129 214t196.5 137t248.5 48q94 0 203 -25.5t202 -97.5t155.5 -199t62.5 -329q0 -131 -38 -232.5t-101 -177.5l147 -143l-278 -187l-115 144q-125 -51 -238 -51q-123 0 -235.5 39.5t-198.5 118.5t-136 195t-50 267zM438 629q0 -41 11.5 -95.5 t40 -105.5t74.5 -87t118 -36l-104 131l182 144l121 -115q10 37 12 79t2 85q0 61 -15.5 119.5t-48 104.5t-84 73.5t-122.5 27.5q-41 0 -75 -24.5t-58.5 -67.5t-39 -102t-14.5 -131z" />
<glyph unicode="r" horiz-adv-x="1177" d="M-51 1141l325 190q68 -35 152 -66.5t170 -66.5t168 -76t145.5 -93t102.5 -120.5t39 -156.5q0 -94 -36 -151.5t-95 -98.5l499 -500l-471 -22l-383 393q8 -49 15.5 -101.5t11.5 -95.5q6 -51 8 -96l-407 -107q-20 152 -42 311.5t-49.5 312.5t-64.5 292t-88 252zM412 950 q14 -37 27.5 -72.5t25.5 -73.5t24.5 -82t24.5 -97q31 -2 63.5 0t61.5 12t47.5 32.5t18.5 61.5q0 61 -46.5 102t-101.5 68q-66 31 -145 49z" />
<glyph unicode="s" horiz-adv-x="925" d="M-76 195l174 274q68 -49 135 -86q57 -33 120 -59.5t114 -26.5q39 0 58.5 20.5t19.5 38.5q0 20 -29 38t-78 41.5t-113.5 55t-136.5 80.5q-59 37 -94 73t-54.5 74t-25.5 81t-6 94q0 63 29 126.5t85 115t140 83t193 31.5q100 0 186 -30.5t152 -65.5q76 -43 139 -96 l-154 -258q-57 33 -112 59q-47 23 -99.5 42.5t-91.5 19.5q-41 0 -60.5 -19.5t-19.5 -38.5q0 -41 60.5 -79t169.5 -85q147 -61 221 -149t74 -215q0 -92 -33 -156.5t-92.5 -104.5t-142.5 -58.5t-181 -18.5q-90 0 -171 20.5t-151.5 50t-127 64.5t-97.5 64z" />
<glyph unicode="t" horiz-adv-x="923" d="M-168 702l25 297l1155 236v-313l-410 -84q0 -43 5 -99.5t14.5 -120t19.5 -131t23 -131.5q27 -150 61 -309l-391 -78q-35 123 -60.5 262.5t-44.5 257.5q-23 139 -39 273z" />
<glyph unicode="u" horiz-adv-x="1222" d="M14 1149l432 14q0 -262 21.5 -426t52.5 -256t67 -125.5t66 -33.5h3q59 0 84 78q26 80 32 239q1 22 1 45q0 78 -11 158q-14 102 -31 186q-20 98 -45 189l432 92q27 -92 47 -201q17 -94 29 -218q9 -94 9 -198q0 -33 -1 -67q-4 -129 -31.5 -249t-87 -211t-157.5 -143 q-92 -49 -225 -49h-21q-150 6 -259.5 59.5t-184 142.5t-120.5 205t-71 244t-30 263q-3 75 -3 148q0 58 2 114z" />
<glyph unicode="v" horiz-adv-x="956" d="M-98 1151l399 109q39 -104 64.5 -177t48 -142t47 -149.5t61.5 -201.5q27 109 56 213q23 90 51 189.5t55 176.5l342 35q-61 -156 -114.5 -319.5t-93.5 -317t-64.5 -287t-30.5 -227.5l-334 -92q-14 53 -44 136t-69.5 184.5t-88 216t-98.5 228.5t-98 223.5t-89 201.5z" />
<glyph unicode="w" horiz-adv-x="1261" d="M-78 930l305 110l138 -581q6 102 10 213q3 63 3 134q0 34 -1 72q-2 112 -12 218l278 137l221 -748q-2 109 -10 236q-8 111 -25.5 256t-48.5 311l334 195q31 -131 55 -281q20 -129 38 -291.5t18 -341.5q0 -117 -9.5 -232.5t-19.5 -213.5q-12 -113 -27 -219l-360 -111 l-250 610l-55 -389l-320 -110z" />
<glyph unicode="x" horiz-adv-x="1277" d="M-39 -2l461 565l-451 570l523 -13l213 -313l186 293l438 22l-385 -544l428 -580h-483l-186 272l-189 -272h-555z" />
<glyph unicode="y" horiz-adv-x="1081" d="M-41 1141l410 102q31 -152 67 -270q14 -51 32.5 -99.5t40 -86t45.5 -61.5t48 -24q25 0 37 23t14 59q1 10 1 21q0 27 -4 60q-5 46 -13 96q-23 113 -64 260l379 106q41 -195 74 -375q14 -78 27.5 -158.5t23.5 -159.5t17.5 -149.5t7.5 -126.5q0 -109 -37 -185.5 t-100.5 -124.5t-149.5 -70.5t-186 -22.5q-109 0 -202 29.5t-165 83t-120 130t-68 173.5l395 65q10 -49 33.5 -93t56.5 -77t71 -51t79 -18q34 0 34 57q0 11 -1 26q-9 82 -33 236q-137 -55 -253 -57h-7q-112 0 -203 67q-94 68 -166 217.5t-121 397.5z" />
<glyph unicode="z" horiz-adv-x="1032" d="M-20 1145l1028 78l36 -283l-493 -590l524 -6l39 -338l-1091 21l-41 303q131 152 235 272q45 51 87 99.5t76 87t56 61.5l21 24l-451 -34z" />
<glyph unicode="&#x2000;" horiz-adv-x="741" />
<glyph unicode="&#x2001;" horiz-adv-x="1483" />
<glyph unicode="&#x2002;" horiz-adv-x="741" />
<glyph unicode="&#x2003;" horiz-adv-x="1483" />
<glyph unicode="&#x2004;" horiz-adv-x="494" />
<glyph unicode="&#x2005;" horiz-adv-x="370" />
<glyph unicode="&#x2006;" horiz-adv-x="247" />
<glyph unicode="&#x2007;" horiz-adv-x="247" />
<glyph unicode="&#x2008;" horiz-adv-x="185" />
<glyph unicode="&#x2009;" horiz-adv-x="296" />
<glyph unicode="&#x200a;" horiz-adv-x="82" />
<glyph unicode="&#x202f;" horiz-adv-x="296" />
<glyph unicode="&#x205f;" horiz-adv-x="370" />
<glyph unicode="&#x25fc;" horiz-adv-x="1136" d="M0 0v1137h1137v-1137h-1137z" />
</font>
</defs>
</svg>
